<?xml version="1.0" encoding="UTF-8"?>
<!-- Generator: Adobe Illustrator 16.0.0, SVG Export Plug-In . SVG Version: 6.00 Build 0)  -->
<!DOCTYPE svg PUBLIC "-//W3C//DTD SVG 1.1//EN" "http://www.w3.org/Graphics/SVG/1.1/DTD/svg11.dtd">
<svg version="1.1" id="Layer_1" xmlns="http://www.w3.org/2000/svg" xmlns:xlink="http://www.w3.org/1999/xlink" x="0px" y="0px" width="400px" height="52px" viewBox="0 0 400 52" enable-background="new 0 0 400 52" xml:space="preserve">
<g>
	<g>
		<circle fill="#FFFFFF" cx="31.821" cy="39.5" r="3.95"/>
		<polygon fill="#5FBA46" points="27.169,5.039 29.802,0.192 60.877,51.808 54.515,51.808   "/>
		<polygon fill="#F2EA3B" points="23.518,11.064 26.08,6.815 52.196,51.808 46.929,51.808   "/>
		<polygon fill="#ED332B" points="21.956,14.066 32.519,31.518 25.433,31.526 22.078,25.982 15.95,36.627 10.508,45.678     40.205,45.678 44.023,51.808 0,51.808   "/>
	</g>
	<g>
		<path fill="#FFFFFF" d="M96.743,28.886l8.612,2.603c-0.579,2.415-1.489,4.433-2.733,6.054c-1.244,1.619-2.788,2.841-4.632,3.665    s-4.191,1.237-7.04,1.237c-3.457,0-6.28-0.503-8.471-1.507c-2.191-1.005-4.083-2.771-5.673-5.301    c-1.591-2.528-2.386-5.767-2.386-9.713c0-5.261,1.398-9.304,4.198-12.129c2.798-2.826,6.757-4.239,11.877-4.239    c4.005,0,7.155,0.81,9.447,2.43s3.996,4.107,5.109,7.463l-8.678,1.931c-0.303-0.969-0.621-1.678-0.954-2.126    c-0.549-0.751-1.223-1.33-2.018-1.735c-0.795-0.405-1.685-0.608-2.668-0.608c-2.228,0-3.934,0.896-5.12,2.687    c-0.897,1.329-1.345,3.417-1.345,6.262c0,3.524,0.535,5.94,1.605,7.247c1.07,1.308,2.574,1.962,4.513,1.962    c1.88,0,3.3-0.528,4.262-1.584C95.612,32.429,96.31,30.896,96.743,28.886z"/>
		<path fill="#FFFFFF" d="M110.107,10.099h26.336v6.79h-16.487v5.055h15.294v6.486h-15.294v6.269h16.964v7.203h-26.813V10.099z"/>
		<path fill="#FFFFFF" d="M142.278,10.099h9.177l11.975,17.595V10.099h9.263v31.803h-9.263l-11.91-17.462v17.462h-9.242V10.099z"/>
		<path fill="#FFFFFF" d="M176.988,10.099h29.873v7.853h-10.022v23.95h-9.828v-23.95h-10.023V10.099z"/>
		<path fill="#FFFFFF" d="M211.438,41.901V10.099h16.38c3.035,0,5.356,0.26,6.962,0.78c1.605,0.521,2.899,1.486,3.884,2.896    c0.983,1.41,1.475,3.128,1.475,5.152c0,1.765-0.376,3.287-1.129,4.567c-0.752,1.28-1.786,2.318-3.104,3.113    c-0.839,0.506-1.989,0.926-3.452,1.259c1.172,0.391,2.023,0.781,2.559,1.172c0.362,0.261,0.886,0.818,1.572,1.672    c0.686,0.854,1.146,1.513,1.377,1.976l4.76,9.216h-11.105l-5.253-9.719c-0.665-1.258-1.258-2.075-1.778-2.451    c-0.709-0.491-1.512-0.738-2.408-0.738h-0.867v12.908H211.438z M221.31,22.985h4.143c0.447,0,1.315-0.145,2.604-0.434    c0.65-0.131,1.183-0.463,1.594-0.998c0.413-0.535,0.618-1.15,0.618-1.844c0-1.027-0.324-1.815-0.977-2.365    c-0.649-0.549-1.872-0.825-3.664-0.825h-4.317V22.985z"/>
		<path fill="#FFFFFF" d="M245.844,10.099h26.337v6.79h-16.487v5.055h15.295v6.486h-15.295v6.269h16.965v7.203h-26.814V10.099z"/>
		<path fill="#FFFFFF" d="M313.941,28.886l8.613,2.603c-0.58,2.415-1.491,4.433-2.733,6.054c-1.245,1.619-2.789,2.841-4.633,3.665    c-1.845,0.824-4.191,1.237-7.04,1.237c-3.456,0-6.28-0.503-8.47-1.507c-2.192-1.005-4.084-2.771-5.674-5.301    c-1.591-2.528-2.387-5.767-2.387-9.713c0-5.261,1.399-9.304,4.197-12.129c2.8-2.826,6.759-4.239,11.879-4.239    c4.005,0,7.155,0.81,9.445,2.43c2.293,1.62,3.997,4.107,5.11,7.463l-8.678,1.931c-0.303-0.969-0.622-1.678-0.954-2.126    c-0.55-0.751-1.223-1.33-2.018-1.735c-0.796-0.405-1.685-0.608-2.669-0.608c-2.227,0-3.935,0.896-5.119,2.687    c-0.896,1.329-1.346,3.417-1.346,6.262c0,3.524,0.535,5.94,1.605,7.247c1.07,1.308,2.573,1.962,4.513,1.962    c1.879,0,3.301-0.528,4.263-1.584S313.508,30.896,313.941,28.886z"/>
		<path fill="#FFFFFF" d="M326.09,26.021c0-5.191,1.445-9.234,4.338-12.127c2.894-2.892,6.921-4.338,12.084-4.338    c5.294,0,9.372,1.421,12.235,4.263s4.296,6.823,4.296,11.942c0,3.717-0.626,6.765-1.877,9.144s-3.059,4.229-5.424,5.553    c-2.364,1.324-5.312,1.986-8.84,1.986c-3.587,0-6.556-0.572-8.905-1.715c-2.351-1.142-4.256-2.95-5.717-5.423    C326.82,32.833,326.09,29.738,326.09,26.021z M335.917,26.065c0,3.21,0.597,5.518,1.791,6.92c1.192,1.402,2.815,2.104,4.869,2.104    c2.111,0,3.745-0.688,4.903-2.062c1.156-1.373,1.734-3.84,1.734-7.397c0-2.994-0.604-5.181-1.812-6.562s-2.845-2.071-4.913-2.071    c-1.981,0-3.572,0.701-4.773,2.104C336.517,20.504,335.917,22.826,335.917,26.065z"/>
		<path fill="#FFFFFF" d="M364.227,10.099h12.924l4.984,19.351l4.949-19.351H400v31.803h-8.048V17.648l-6.202,24.253h-7.284    l-6.189-24.253v24.253h-8.05V10.099z"/>
	</g>
</g>
<div xmlns="" id="divScriptsUsed" style="display: none"/><script xmlns="" id="globalVarsDetection" src="moz-extension://b133ce3e-39a5-4e1f-930d-881aa2e11805/js/wrs_env.js"/></svg>