<?xml version="1.0" encoding="utf-8"?>
<!-- Generator: Adobe Illustrator 22.0.1, SVG Export Plug-In . SVG Version: 6.00 Build 0)  -->
<svg version="1.1" id="Layer_1" xmlns="http://www.w3.org/2000/svg" xmlns:xlink="http://www.w3.org/1999/xlink" x="0px" y="0px"
	 viewBox="0 0 1012 99" style="enable-background:new 0 0 1012 99;" xml:space="preserve">
<style type="text/css">
	.st0{fill:#52ADFF;}
	.st1{fill:#FFFFFF;}
</style>
<g>
	<g>
		<path class="st0" d="M8.5,92.7V11.3h66.8v12.8H88v37.6H75.3v9.1H26.1v21.9H8.5z M70.4,51.4V30.7H26.1v20.7H70.4z"/>
		<path class="st1" d="M73.8,12.8v12.8h12.8v34.6H73.8v9.1H24.6v21.9H10V68V52.6V28.1V12.8h16.3H73.8 M24.6,52.9h47.4V29.2H24.6
			V52.9 M76.8,9.8h-3H26.3H10H7v3v15.2v24.5V68v23.2v3h3h14.6h3v-3V72.3h46.2h3v-3v-6.1h9.8h3v-3V25.6v-3h-3h-9.8v-9.8V9.8L76.8,9.8
			z M27.6,32.2h41.4v17.7H27.6V32.2L27.6,32.2z"/>
	</g>
	<g>
		<polygon class="st0" points="111,93 111,84 101,84 101,24 111,24 111,11 181,11 181,31 119,31 119,73 181,73 181,93 		"/>
		<path class="st1" d="M179,13v16h-62v46h62v16h-67v-9h-9V26h9V13H179 M182,10h-2.6H112h-3v2.8V23h-6.1H100v2.6v56.5V85h2.9h6.1v6.2
			V94h3h67.4h2.6v-2.8V74.8V72h-2.6H120V32h59.4h2.6v-2.8V12.8V10L182,10z"/>
	</g>
	<g>
		<polygon class="st0" points="244,93 244,84 234,84 234,24 244,24 244,11 314,11 314,31 252,31 252,73 314,73 314,93 		"/>
		<path class="st1" d="M312,13v16h-62v46h62v16h-67v-9h-9V26h9V13H312 M315,10h-2.6H245h-3v2.8V23h-6.1H233v2.6v56.5V85h2.9h6.1v6.2
			V94h3h67.4h2.6v-2.8V74.8V72h-2.6H253V32h59.4h2.6v-2.8V12.8V10L315,10z"/>
	</g>
	<g>
		<polygon class="st0" points="519,93 519,84 509,84 509,24 519,24 519,11 589,11 589,31 529,31 529,42 589,42 589,62 529,62 
			529,73 589,73 589,93 		"/>
		<path class="st1" d="M587,13v16h-60v15h60v16h-60v15h60v16h-67v-9h-9V26h9V13H587 M590,10h-2.5h-67.4H517v2.8V23h-6h-3v2.6v56.5
			V85h3h6v6.2V94h3.1h67.4h2.5v-2.8V74.8V72h-2.5H530v-9h57.5h2.5v-2.8V43.8V41h-2.5H530v-9h57.5h2.5v-2.8V12.8V10L590,10z"/>
	</g>
	<g>
		<polygon class="st0" points="747,93 747,84 738,84 738,24 747,24 747,11 818,11 818,31 756,31 756,42 818,42 818,62 756,62 
			756,73 818,73 818,93 		"/>
		<path class="st1" d="M816,13v16h-62v15h62v16h-62v15h62v16h-67v-9h-9V26h9V13H816 M819,10h-3h-67.4H746v2.8V23h-6.5H737v2.6v56.5
			V85h2.5h6.5v6.2V94h2.6H816h3v-2.8V74.8V72h-3h-59v-9h59h3v-2.8V43.8V41h-3h-59v-9h59h3v-2.8V12.8V10L819,10z"/>
	</g>
	<g>
		<polygon class="st0" points="654,93 654,84 645,84 645,24 654,24 654,11 725,11 725,31 665,31 665,73 707,73 707,62 685,62 
			685,42 714,42 714,55 725,55 725,93 		"/>
		<path class="st1" d="M723,13v16h-60v46h46V60h-22V44h25v13h11v17.1v12.3V91h-67v-9h-9V26h9V13H723 M726,10h-2.9h-67.4H653v2.8V23
			h-6.4H644v2.6v56.5V85h2.6h6.4v6.2V94h2.7h67.4h2.9v-2.8v-4.8V74.1V56.6V54h-2.9H715V43.8V41h-2.8h-25.5H684v2.8v16.4V63h2.7H706
			v9h-40V32h57.1h2.9v-2.8V12.8V10L726,10z"/>
	</g>
	<g>
		<polygon class="st0" points="418,93 418,73 480,73 480,62 427,62 427,53 418,53 418,24 427,24 427,11 498,11 498,31 436,31 
			436,42 485,42 485,55 498,55 498,84 489,84 489,93 		"/>
		<path class="st1" d="M496,13v16h-62v15h50v13h12v25h-9v9h-67V75h62V60h-53v-9h-9V26h9V13H496 M499,10h-2.6H429h-3v2.8V23h-6.1H417
			v2.6v25.5V54h2.9h6.1v6.2V63h3h50v9h-59.1H417v2.8v16.4V94h2.9h67.4h2.7v-2.8V85h6.4h2.6v-2.9V56.6V54h-2.6H487V43.8V41h-3.4H437
			v-9h59.4h2.6v-2.8V12.8V10L499,10z"/>
	</g>
	<g>
		<path class="st0" d="M387.4,92.7V70.8h-42.5v21.9h-19.4V24.1h9.1V11.3h59.5v12.8H405v68.6H387.4z M387.4,51.4V30.7h-42.5v20.7
			H387.4z"/>
		<path class="st1" d="M392.6,12.8v12.8h10.9v65.6h-14.6V69.3h-45.5v21.9H327V25.6h9.1V12.8H392.6 M343.4,52.9h45.5V29.2h-45.5V52.9
			 M395.6,9.8h-3h-56.5h-3v3v9.8H327h-3v3v65.6v3h3h16.4h3v-3V72.3h39.5v18.9v3h3h14.6h3v-3V25.6v-3h-3h-7.9v-9.8V9.8L395.6,9.8z
			 M346.4,32.2h39.5v17.7h-39.5V32.2L346.4,32.2z"/>
	</g>
	<g>
		<path class="st0" d="M891,92.7V70.8h-42.5v21.9h-19.4V24.1h9.1V11.3h59.5v12.8h10.9v68.6H891z M891,51.4V30.7h-42.5v20.7H891z"/>
		<path class="st1" d="M896.2,12.8v12.8h10.9v65.6h-14.6V69.3H847v21.9h-16.4V25.6h9.1V12.8H896.2 M847,52.9h45.5V29.2H847V52.9
			 M899.2,9.8h-3h-56.5h-3v3v9.8h-6.1h-3v3v65.6v3h3H847h3v-3V72.3h39.5v18.9v3h3h14.6h3v-3V25.6v-3h-3h-7.9v-9.8V9.8L899.2,9.8z
			 M850,32.2h39.5v17.7H850V32.2L850,32.2z"/>
	</g>
	<g>
		<path class="st0" d="M983.9,92.7V79.9h-9.1v-9.1h-35.3v21.9H922V11.3h66.8v9.1h12.8v38.5h-12.8v14.3h12.8v19.4H983.9z M983.9,51.4
			V30.7h-44.4v20.7H983.9z"/>
		<path class="st1" d="M987.2,12.8v9.1h12.8v35.5h-12.8v4.4v12.9h12.8v16.4h-14.6V78.4h-9.1v-9.1h-38.3v21.9h-14.6V28.1V25V12.8
			H987.2 M938.1,52.9h47.4v-6.4V29.2h-47.4V52.9 M990.2,9.8h-3h-63.8h-3v3V25v3.1v63.1v3h3h14.6h3v-3V72.3h32.3v6.1v3h3h6.1v9.8v3h3
			h14.6h3v-3V74.8v-3h-3h-9.8v-9.9v-1.4h9.8h3v-3V21.9v-3h-3h-9.8v-6.1V9.8L990.2,9.8z M941.1,32.2h41.4v14.3v3.4h-41.4V32.2
			L941.1,32.2z"/>
	</g>
</g>
</svg>
