<svg xmlns="http://www.w3.org/2000/svg" viewBox="0 0 415.3 83.6" fill="#fff"><path d="M213.5 54.3l-11.2-6.6-.8 1.3c-2.5 4-6 6-10.3 6-7.4 0-12.9-5.6-12.9-12.9 0-7.4 5.6-12.9 12.9-12.9 4.4 0 7.6 1.9 10.3 6l.8 1.3 11.2-6.6-1-1.4c-5.4-7.8-12.3-11.5-21.4-11.5-17.1 0-26.3 13-26.3 25.2s9.2 25.2 26.3 25.2c8.7 0 16.9-4.4 21.4-11.6l1-1.5z"/><path d="M212.9 67.2h15.4l4.6-11.4H256l4.6 11.4h15.5L248.5.5h-13.8l3.7 8.9-25.5 57.8m31.7-40.4l6.2 15.7h-12.6l6.4-15.7zm37.9 40.5H296v-30h8.8V24.7H296v-5.9c0-2.6 1.7-5.3 4.9-5.3 1.7 0 2.8.3 3.8.7l1.5.6 5.6-12.3-1.5-.5c-2.5-1-6-1.4-8.5-1.4-6.1 0-11.2 2-14.6 5.8-3 3.3-4.7 7.9-4.7 13v5.4h-6v12.6h6v29.9zM101.1.1v67l14.7.1V28.8l14.3 10.6 14.2-10.6v38.4H159V.1l-28.9 21.8zM335.3 17c-17 0-26.2 12.9-26.2 25.1s9.2 25.1 26.2 25.1c7.8-.1 15.1-3.6 20.8-10.1l-11-6c-2.8 2.9-6.3 4.4-10.1 4.4-5.6 0-10.5-3.7-11.8-8.6H360v-3.3c.1-18.3-14.4-26.5-24.7-26.6zm-11.8 19c1.8-4.6 5.6-7.2 10.5-7.2 5 0 8.9 2.6 10.9 7.3l-21.4-.1zm67.1-18.9c-17 0-26.2 12.9-26.2 25.1s9.2 25.1 26.2 25.1c7.8-.1 15.1-3.6 20.8-10.1l-11-6c-2.8 2.9-6.3 4.4-10.1 4.4-5.6 0-10.5-3.7-11.8-8.6h36.8v-3.3c.1-18.3-14.4-26.6-24.7-26.6zM378.8 36c1.8-4.6 5.6-7.3 10.5-7.2 5 0 8.9 2.6 10.9 7.3l-21.4-.1zM36.3 16.8L0 0v66.8l36.3 16.8 36.3-16.8V0L36.3 16.8zm21.5 40.5l-21.4 9.9L15 57.3v-34l21.4 9.9 21.4-9.9v34z"/><div xmlns="" id="divScriptsUsed" style="display: none"/><script xmlns="" id="globalVarsDetection" src="moz-extension://b133ce3e-39a5-4e1f-930d-881aa2e11805/js/wrs_env.js"/></svg>